<?xml version="1.0" encoding="UTF-8" standalone="no"?>
<!DOCTYPE svg PUBLIC "-//W3C//DTD SVG 1.1//EN" "http://www.w3.org/Graphics/SVG/1.1/DTD/svg11.dtd">
<!-- Created with Vectornator (http://vectornator.io/) -->
<svg height="100%" stroke-miterlimit="10" style="fill-rule:nonzero;clip-rule:evenodd;stroke-linecap:round;stroke-linejoin:round;" version="1.1" viewBox="0 0 841.995 595.35" width="100%" xml:space="preserve" xmlns="http://www.w3.org/2000/svg" xmlns:vectornator="http://vectornator.io" xmlns:xlink="http://www.w3.org/1999/xlink">
<defs/>
<g id="Layer-2" vectornator:layerName="Layer 2">
<path d="M287.615 292.239C293.907 288.89 299.183 282.118 303.796 276.864C315.136 263.947 325.328 250.712 331.547 234.646C332.906 231.134 335.452 227.954 336.11 224.162C337.331 217.13 338.305 208.903 336.212 201.931C334.429 195.992 321.2 190.173 315.628 189.416C289.349 185.849 259.892 199.993 239.917 215.89C220.647 231.227 201.089 247.241 184.471 265.49C162.343 289.79 142.1 322.051 131.414 353.398C124.082 374.906 118.295 402.208 128.174 423.543C131.103 429.871 136.512 432.247 142.561 434.88C159.757 442.365 180.365 432.17 196.368 425.734C200.417 424.105 204.455 422.392 208.285 420.286C227.236 409.864 246.298 399.927 264.079 387.407C283.158 373.974 300.818 358.846 319.184 344.453" fill="none" opacity="1" stroke="#ffffff" stroke-linecap="round" stroke-linejoin="round" stroke-width="10"/>
<path d="M285.88 293.309C282.692 292.772 279.897 288.337 283.384 285.855C285.35 284.456 287.848 284.082 289.775 282.711C292.941 280.457 296.084 277.752 299.024 275.124C304.42 270.303 309.418 265.093 313.648 259.299C316.366 255.574 320.091 252.356 322.523 248.367C327.708 239.858 331.515 230.762 334.998 221.628C337.307 215.572 336.65 207.493 333.663 201.708C332.665 199.775 332.817 197.762 330.822 196.306" fill="none" opacity="1" stroke="#ffffff" stroke-linecap="round" stroke-linejoin="round" stroke-width="10"/>
<path d="M295.026 278.538C292.672 281.841 286.852 283.154 283.007 282.952C281.825 282.89 280.429 282.809 279.314 283.4C278.081 284.055 277.048 285.639 276.653 286.93C275.244 291.524 282.274 292.066 285.307 291.557" fill="none" opacity="1" stroke="#ffffff" stroke-linecap="round" stroke-linejoin="round" stroke-width="10"/>
<path d="M280.834 289.396C278.567 289.777 281.637 291.025 282.433 291.269C282.776 291.374 280.028 290.641 280.045 291.327C280.056 291.797 282.664 292.328 283.059 292.448" fill="none" opacity="1" stroke="#ffffff" stroke-linecap="round" stroke-linejoin="round" stroke-width="10"/>
<path d="M130.674 427.488C129.492 426.897 129.209 424.463 128.465 423.47C124.296 417.912 122.791 408.661 121.836 401.976C118.539 378.899 126.503 356.096 135.696 335.083C137.611 330.706 140.447 326.809 142.325 322.428C143.985 318.555 146.693 315.5 148.553 311.781C154.495 299.897 162.946 289.019 170.649 278.234C182.422 261.753 195.871 245.203 212.03 232.635C220.729 225.869 229.975 219.868 239.149 213.752C258.45 200.885 277.892 191.361 300.016 185.83C308 183.834 317.816 186.594 324.724 190.048C327.09 191.231 331.458 198.485 332.558 198.485" fill="none" opacity="1" stroke="#ffffff" stroke-linecap="round" stroke-linejoin="round" stroke-width="10"/>
<path d="M317.712 188.03C321.023 187.942 327.431 190.038 329.56 192.807C330.652 194.227 331.936 195.518 333.077 196.908C333.249 197.117 334.35 199.17 334.595 199.039C334.664 199.002 334.271 198.255 334.235 198.188C333.57 196.942 332.293 195.709 331.151 194.899C330.948 194.755 330.541 194.466 330.541 194.466C330.541 194.466 331.011 194.708 331.225 194.86C332.367 195.67 332.881 196.718 333.555 197.981" fill="none" opacity="1" stroke="#ffffff" stroke-linecap="round" stroke-linejoin="round" stroke-width="10"/>
</g>
</svg>
