<?xml version="1.0" encoding="UTF-8" standalone="no"?>
<!DOCTYPE svg PUBLIC "-//W3C//DTD SVG 1.1//EN" "http://www.w3.org/Graphics/SVG/1.1/DTD/svg11.dtd">
<!-- Created with Vectornator (http://vectornator.io/) -->
<svg height="100%" stroke-miterlimit="10" style="fill-rule:nonzero;clip-rule:evenodd;stroke-linecap:round;stroke-linejoin:round;" version="1.1" viewBox="0 0 1190.7 841.995" width="100%" xml:space="preserve" xmlns="http://www.w3.org/2000/svg" xmlns:vectornator="http://vectornator.io" xmlns:xlink="http://www.w3.org/1999/xlink">
<defs/>
<g id="Layer-2" vectornator:layerName="Layer 2">
<path d="M101.957 440.575C117.096 410.297 137.886 383.669 144.846 348.869C146.937 338.413 150.046 299.829 130.898 323.763C106.024 354.856 153.729 356.933 161.235 369.442C166.747 378.629 159.316 414.179 170.998 416.516C182.655 418.847 230.503 379.083 219.467 368.047C202.058 350.639 180.923 428.773 219.118 400.127C222.589 397.524 225.403 394.188 228.184 390.712C232.119 385.793 237.149 382.495 240.737 377.113" fill="none" opacity="1" stroke="#ffffff" stroke-linecap="round" stroke-linejoin="round" stroke-width="10"/>
<path d="M241.783 376.067C241.783 396.342 243.875 416.587 243.875 436.74C243.875 438.098 243.956 454.523 244.921 454.523C246.386 454.523 247.013 433.35 247.013 431.161C247.013 415.533 246.263 375.919 263.402 367.35C274.343 361.879 278.365 415.882 260.612 412.331C235.941 407.397 280.947 379.788 287.462 378.159C298.622 375.369 284.146 406.259 300.015 403.614C313.816 401.314 320.323 361.921 309.43 353.751C293.961 342.149 278.57 361.073 286.067 376.067C299.539 403.01 328.608 348.444 328.608 397.337" fill="none" opacity="1" stroke="#ffffff" stroke-linecap="round" stroke-linejoin="round" stroke-width="10"/>
<path d="M327.562 397.337C329.97 393.725 344.28 371.509 349.529 378.508C353.005 383.143 348.207 401.561 358.247 400.127C368.494 398.663 377.125 366.602 382.307 370.488C383.702 371.534 385.015 373.812 385.794 375.37C389.516 382.815 382.39 363.287 375.681 372.231C371.925 377.24 367.132 401.131 379.517 398.035C394.341 394.329 421.005 345.407 424.499 331.434C426.383 323.896 429.648 308.045 419.268 304.585C410.77 301.752 403.349 320.692 401.136 325.855C396.099 337.607 384.515 397.144 392.767 408.147C405.963 425.742 410.265 397.022 415.781 389.666C420.472 383.412 427.037 379.708 430.775 372.231C431.853 370.075 432.363 366.972 430.078 365.258C419.587 357.39 413.812 380.621 416.13 387.574C423.122 408.55 445.071 377.136 445.071 366.304" fill="none" opacity="1" stroke="#ffffff" stroke-linecap="round" stroke-linejoin="round" stroke-width="10"/>
<path d="M446.058 364.146C445.128 364.611 451.251 364.572 452.743 364.146C454.058 363.77 469.133 358.651 469.309 358.914C472.535 363.754 453.836 376.435 455.358 381.002C455.412 381.162 464.538 380.506 466.112 381.293C473.912 385.193 475.069 394.602 474.25 402.8C472.049 424.807 425.397 481.429 401.301 460.345C391.389 451.673 403.382 439.581 410.02 433.607C419.026 425.501 489.072 390.25 489.072 423.435" fill="none" opacity="1" stroke="#ffffff" stroke-linecap="round" stroke-linejoin="round" stroke-width="10"/>
<path d="M207.907 352.656C211.474 355.12 220.966 345.288 224.317 344.167" fill="none" opacity="1" stroke="#ffffff" stroke-linecap="round" stroke-linejoin="round" stroke-width="10"/>
<path d="M566.71 359.198C571.98 348.658 539.487 342.86 535.892 360.835C533.724 371.678 557.447 372.57 563.983 378.017C568.767 382.003 570.248 388.893 571.62 394.38C577.3 417.102 548.564 428.954 532.62 416.198C502.375 392.003 572.556 380.549 580.892 376.38" fill="none" opacity="1" stroke="#ffffff" stroke-linecap="round" stroke-linejoin="round" stroke-width="10"/>
<path d="M601.892 358.653C607.214 369.296 594.729 392.059 607.62 400.653C615.689 406.033 625.354 384.71 627.529 379.926C633.601 366.567 654.104 311.632 644.165 298.38C634.311 285.241 625.188 328.675 624.529 333.289C621.501 354.479 621.564 383.463 629.983 403.107C632.265 408.432 637.304 412.295 639.801 417.289" fill="none" opacity="1" stroke="#ffffff" stroke-linecap="round" stroke-linejoin="round" stroke-width="10"/>
<path d="M604.074 337.653L603.529 337.38L602.983 337.926L602.71 338.471L602.71 340.38L602.71 340.926L602.983 341.471L603.529 341.744L604.074 342.017L604.347 341.471L604.892 340.926L604.892 340.38L604.892 339.562L604.892 339.562" fill="none" opacity="1" stroke="#ffffff" stroke-linecap="round" stroke-linejoin="round" stroke-width="10"/>
<path d="M580.892 327.289C579.133 330.808 580.892 337.597 580.892 341.471" fill="none" opacity="1" stroke="#ffffff" stroke-linecap="round" stroke-linejoin="round" stroke-width="10"/>
<path d="M683.082 352.736C683.922 361.158 686.606 368.892 688.35 377.067C689.505 382.487 690.454 387.738 692.073 393.03C692.772 395.318 699.423 413.13 700.928 412.979C704.545 412.619 708.126 396.76 709.207 393.925C713.608 382.381 729.599 337.183 716.864 328.297C705.927 320.666 700.626 341.976 703.779 349.014C709.931 362.746 721.153 362.402 733.52 367.116" fill="none" opacity="1" stroke="#ffffff" stroke-linecap="round" stroke-linejoin="round" stroke-width="10"/>
<path d="M735.301 368.359C735.904 374.409 732.886 388.339 738.717 393.112C751.126 403.269 760.942 375.301 760.944 366.748C760.949 344.529 738.235 339.664 730.263 360.576C715.723 398.718 767.248 364.191 771.75 365.907C775.909 367.492 769.454 383.57 774.276 386.487C782.407 391.406 789.48 369.116 793.594 371.303C795.863 372.509 793.826 386.831 795.722 390.266C802.056 401.741 819.568 375.253 823.057 372.388" fill="none" opacity="1" stroke="#ffffff" stroke-linecap="round" stroke-linejoin="round" stroke-width="10"/>
<path d="M850.555 357.932C842.708 350.085 826.772 356.05 825.054 366.36C824.63 368.904 844.423 379.13 842.991 394.886C842.118 404.486 824.141 420.459 814.249 413.039C807.692 408.122 815.497 401.157 819.435 398.344C828.186 392.093 840.615 389.385 851.203 390.348C853.594 390.565 854.383 393.157 856.606 393.157" fill="none" opacity="1" stroke="#ffffff" stroke-linecap="round" stroke-linejoin="round" stroke-width="10"/>
<path d="M899.201 357.083C898.753 356.859 898.792 365.792 898.792 367.314C898.792 373.835 899.381 380.676 898.792 387.162C897.665 399.559 896.746 414.991 899.201 427.267C899.998 431.25 899.201 436.276 899.201 440.363C899.201 442.623 897.793 448.126 899.815 447.116C902.624 445.711 898.764 425.865 898.996 422.152C900.246 402.159 896.026 351.883 924.983 347.056C941.402 344.32 938.475 387.588 931.736 396.574C924.801 405.821 912.297 403.815 912.297 391.663C912.297 383.996 923.589 378.332 928.666 374.271C944.447 361.646 966.665 349.722 974.911 330.482C977.36 324.766 987.088 305.806 978.184 302.244C969.013 298.576 962.735 315.934 959.769 321.274C950.466 338.018 947.456 368.296 950.151 387.162C953.106 407.841 976.926 386.2 981.254 377.545" fill="none" opacity="1" stroke="#ffffff" stroke-linecap="round" stroke-linejoin="round" stroke-width="10"/>
<path d="M1002.13 365.267C1005.52 358.479 997.319 354.241 991.894 358.31C985.873 362.826 975.208 385.621 984.937 391.459C995.655 397.89 997.372 381.047 1003.56 377.954C1003.66 377.905 1003.64 381.823 1003.56 382.251C1002.73 386.364 1002.93 390.687 1007.65 391.868C1017.98 394.449 1026.3 376.259 1029.75 369.36" fill="none" opacity="1" stroke="#ffffff" stroke-linecap="round" stroke-linejoin="round" stroke-width="10"/>
<path d="M1029.72 366.743C1029.72 364.053 1029.46 372.118 1029.21 374.797C1028.83 378.99 1026.47 389.171 1029.89 392.582C1033.48 396.173 1047.04 386.574 1048.34 382.683" fill="none" opacity="1" stroke="#ffffff" stroke-linecap="round" stroke-linejoin="round" stroke-width="10"/>
<path d="M1065.12 304.999C1064.89 305.114 1061.3 327.747 1060.93 329.831C1057.2 350.315 1046.56 380.522 1053.37 400.971C1055.41 407.075 1060.57 409.33 1063.11 414.394" fill="none" opacity="1" stroke="#ffffff" stroke-linecap="round" stroke-linejoin="round" stroke-width="10"/>
<path d="M1025.36 347.616C1028.77 340.785 1031.81 340.1 1035.59 345.77" fill="none" opacity="1" stroke="#ffffff" stroke-linecap="round" stroke-linejoin="round" stroke-width="10"/>
<path d="M1044.99 364.227C1047.91 362.275 1057.57 362.7 1061.09 363.052" fill="none" opacity="1" stroke="#ffffff" stroke-linecap="round" stroke-linejoin="round" stroke-width="10"/>
<path d="M99.2216 438.577C98.3948 433.103 110.956 414.167 114.181 409.794C125.92 393.879 137.73 365.585 140.266 345.95C140.902 341.027 145.314 315.918 136.689 315.095C122.201 313.713 119.6 340.682 123.031 348.914C129.18 363.67 154.05 360.387 158.908 373.809C162.24 383.014 156.536 419.276 171.919 416.953" fill="none" opacity="1" stroke="#ffffff" stroke-linecap="round" stroke-linejoin="round" stroke-width="10"/>
<path d="M102.601 435.233C101.811 433.653 99.5416 441.604 100.332 440.023" fill="none" opacity="1" stroke="#ffffff" stroke-linecap="round" stroke-linejoin="round" stroke-width="10"/>
<path d="M128.947 317.62C130.922 311.695 142.891 315 144.957 319.132" fill="none" opacity="1" stroke="#ffffff" stroke-linecap="round" stroke-linejoin="round" stroke-width="10"/>
<path d="M567.816 361.638C570.938 361.219 571.421 354.346 569.221 352.666C557.827 343.967 541.118 346.79 534.037 359.442C523.934 377.493 570.159 370.52 568.586 395.02C567.224 416.238 544.377 423.75 529.992 409.114C524.293 403.317 530.844 396.772 535.931 394.046C548.143 387.5 566.818 379.2 580.492 377.367" fill="none" opacity="1" stroke="#ffffff" stroke-linecap="round" stroke-linejoin="round" stroke-width="10"/>
<path d="M566.753 357.8C566.186 358.185 566.498 361.54 567.376 361.422" fill="none" opacity="1" stroke="#ffffff" stroke-linecap="round" stroke-linejoin="round" stroke-width="10"/>
<path d="M679.845 351.471C677.281 359.241 681.377 370.776 683.738 378.146C687.453 389.741 692.613 400.541 696.637 411.835C696.787 412.255 697.256 413.827 697.954 413.725C701.336 413.232 703.816 396.717 705.98 393.813C713.343 383.933 725.361 333.303 714.927 325.527C705.384 318.415 699.829 337.161 699.949 342.983C700.185 354.458 709.838 356.369 714.946 363.7" fill="none" opacity="1" stroke="#ffffff" stroke-linecap="round" stroke-linejoin="round" stroke-width="10"/>
<path d="M700.156 410.975L700.036 411.339L700.11 411.849L700.184 412.359L700.404 412.674L700.453 413.014L700.673 413.329L700.358 413.548L700.238 413.913L699.923 414.132L699.558 414.012L699.193 413.892L698.854 413.941L698.489 413.821L698.124 413.701L697.905 413.386L697.905 413.386" fill="none" opacity="1" stroke="#ffffff" stroke-linecap="round" stroke-linejoin="round" stroke-width="10"/>
<path d="M679.931 357.873C679.931 357.55 680.086 347.372 682.266 351.733" fill="none" opacity="1" stroke="#ffffff" stroke-linecap="round" stroke-linejoin="round" stroke-width="10"/>
<path d="M896.172 356.367C892.843 379.993 896.449 404.365 895.307 428.307C895.172 431.146 895.522 449.787 899.11 450.12C899.94 450.197 899.487 443.001 899.524 441.977C899.56 441.012 898.816 438.473 899.566 439.08C901.264 440.454 898.445 447.279 900.236 448.728C901.464 449.722 900.365 445.56 900.199 443.989C899.979 441.898 900.219 439.785 899.994 437.647C899.221 430.314 898.898 422.859 898.124 415.514C896.291 398.12 896.4 353.271 918.49 346.38C944.901 338.14 932.047 390.541 923.146 401.539C917.899 408.023 910.602 397.018 911.052 392.17C911.981 382.14 926.885 372.14 935.265 368.33" fill="none" opacity="1" stroke="#ffffff" stroke-linecap="round" stroke-linejoin="round" stroke-width="10"/>
<path d="M896.642 356.434L896.618 356.205L896.708 355.964L896.798 355.723L896.888 355.482L897.232 355.446L897.473 355.536L897.611 355.753L897.611 355.753" fill="none" opacity="1" stroke="#ffffff" stroke-linecap="round" stroke-linejoin="round" stroke-width="10"/>
<path d="M918.154 403.569C916.805 403.712 920.945 404.184 922.219 403.719C924.721 402.806 929.204 400.331 930.246 397.551" fill="none" opacity="1" stroke="#ffffff" stroke-linecap="round" stroke-linejoin="round" stroke-width="10"/>
</g>
</svg>
