<?xml version="1.0" encoding="UTF-8" standalone="no"?>
<!DOCTYPE svg PUBLIC "-//W3C//DTD SVG 1.1//EN" "http://www.w3.org/Graphics/SVG/1.1/DTD/svg11.dtd">
<!-- Created with Vectornator (http://vectornator.io/) -->
<svg height="100%" stroke-miterlimit="10" style="fill-rule:nonzero;clip-rule:evenodd;stroke-linecap:round;stroke-linejoin:round;" version="1.1" viewBox="0 0 841.995 595.35" width="100%" xml:space="preserve" xmlns="http://www.w3.org/2000/svg" xmlns:vectornator="http://vectornator.io" xmlns:xlink="http://www.w3.org/1999/xlink">
<defs/>
<g id="Layer-2" vectornator:layerName="Layer 1">
<path d="M287.615 292.239C293.907 288.89 299.183 282.118 303.796 276.864C315.136 263.947 325.328 250.712 331.547 234.646C332.906 231.134 335.452 227.954 336.11 224.162C337.331 217.13 338.305 208.903 336.212 201.931C334.429 195.992 321.2 190.173 315.628 189.416C289.349 185.849 259.892 199.993 239.917 215.89C220.647 231.227 201.089 247.241 184.471 265.49C162.343 289.79 142.1 322.051 131.414 353.398C124.082 374.906 118.295 402.208 128.174 423.543C131.103 429.871 136.512 432.247 142.561 434.88C159.757 442.365 180.365 432.17 196.368 425.734C200.417 424.105 204.455 422.392 208.285 420.286C227.236 409.864 246.298 399.927 264.079 387.407C283.158 373.974 300.818 358.846 319.184 344.453" fill="none" opacity="1" stroke="#ffffff" stroke-linecap="round" stroke-linejoin="round" stroke-width="10"/>
<path d="M285.88 293.309C282.692 292.772 279.897 288.337 283.384 285.855C285.35 284.456 287.848 284.082 289.775 282.711C292.941 280.457 296.084 277.752 299.024 275.124C304.42 270.303 309.418 265.093 313.648 259.299C316.366 255.574 320.091 252.356 322.523 248.367C327.708 239.858 331.515 230.762 334.998 221.628C337.307 215.572 336.65 207.493 333.663 201.708C332.665 199.775 332.817 197.762 330.822 196.306" fill="none" opacity="1" stroke="#ffffff" stroke-linecap="round" stroke-linejoin="round" stroke-width="10"/>
<path d="M295.026 278.538C292.672 281.841 286.852 283.154 283.007 282.952C281.825 282.89 280.429 282.809 279.314 283.4C278.081 284.055 277.048 285.639 276.653 286.93C275.244 291.524 282.274 292.066 285.307 291.557" fill="none" opacity="1" stroke="#ffffff" stroke-linecap="round" stroke-linejoin="round" stroke-width="10"/>
<path d="M280.834 289.396C278.567 289.777 281.637 291.025 282.433 291.269C282.776 291.374 280.028 290.641 280.045 291.327C280.056 291.797 282.664 292.328 283.059 292.448" fill="none" opacity="1" stroke="#ffffff" stroke-linecap="round" stroke-linejoin="round" stroke-width="10"/>
<path d="M130.674 427.488C129.492 426.897 129.209 424.463 128.465 423.47C124.296 417.912 122.791 408.661 121.836 401.976C118.539 378.899 126.503 356.096 135.696 335.083C137.611 330.706 140.447 326.809 142.325 322.428C143.985 318.555 146.693 315.5 148.553 311.781C154.495 299.897 162.946 289.019 170.649 278.234C182.422 261.753 195.871 245.203 212.03 232.635C220.729 225.869 229.975 219.868 239.149 213.752C258.45 200.885 277.892 191.361 300.016 185.83C308 183.834 317.816 186.594 324.724 190.048C327.09 191.231 331.458 198.485 332.558 198.485" fill="none" opacity="1" stroke="#ffffff" stroke-linecap="round" stroke-linejoin="round" stroke-width="10"/>
<path d="M317.712 188.03C321.023 187.942 327.431 190.038 329.56 192.807C330.652 194.227 331.936 195.518 333.077 196.908C333.249 197.117 334.35 199.17 334.595 199.039C334.664 199.002 334.271 198.255 334.235 198.188C333.57 196.942 332.293 195.709 331.151 194.899C330.948 194.755 330.541 194.466 330.541 194.466C330.541 194.466 331.011 194.708 331.225 194.86C332.367 195.67 332.881 196.718 333.555 197.981" fill="none" opacity="1" stroke="#ffffff" stroke-linecap="round" stroke-linejoin="round" stroke-width="10"/>
</g>
<g id="Layer-2" vectornator:layerName="Layer 2" transform="translate(300,2.5)">
<path d="M118.981 287.859C118.348 289.213 118.816 280.295 119.374 278C120.916 271.654 121.098 264.929 123.41 258.647C123.685 257.899 126.509 249.74 128.015 250.813C130.099 252.297 126.846 258.063 126.07 259.566C123.713 264.126 120.751 271.949 120.591 277.112C120.492 280.33 120.343 284.942 118.981 287.859Z" fill="none" fill-rule="evenodd" opacity="1" stroke="#ffffff" stroke-linecap="round" stroke-linejoin="round" stroke-width="10"/>
<path d="M106.39 346.443C105.845 346.716 103.163 354.893 102.7 356.281C99.2973 366.49 94.5643 376.222 93.214 387.024C93.0047 388.699 90.9059 398.255 92.6869 399.146C96.7877 401.196 93.1062 390.917 92.8626 390.186" fill="none" fill-rule="evenodd" opacity="1" stroke="#ffffff" stroke-linecap="round" stroke-linejoin="round" stroke-width="10"/>
<path d="M107.036 345.044C95.6983 352.084 85.3135 360.525 72.6085 365.084C67.6866 366.851 59.975 368.766 55.9406 363.952C51.874 359.1 58.6912 351.419 61.5751 347.949C67.3324 341.021 76.693 337.539 84.1612 332.902C89.9733 329.293 97.2445 325.875 103.832 324.305" fill="none" fill-rule="evenodd" opacity="1" stroke="#ffffff" stroke-linecap="round" stroke-linejoin="round" stroke-width="10"/>
<path d="M102.921 323.219C93.6362 325.432 83.1179 329.171 73.2572 327.247C70.4938 326.708 63.2192 325.665 63.8409 321.455C64.8097 314.892 72.2531 310.815 76.6594 306.889C88.0366 296.751 102.462 290.326 117.753 291.124C123.105 291.403 128.178 293.14 132.298 296.563C133.786 297.8 136.099 300.521 134.256 302.503C132.356 304.548 131.084 297.015 130.585 296.211" fill="none" fill-rule="evenodd" opacity="1" stroke="#ffffff" stroke-linecap="round" stroke-linejoin="round" stroke-width="10"/>
</g>
<g id="Layer-3" vectornator:layerName="Layer 3" transform="translate(190,2.5)">
<path d="M307.425 222.362C307.425 216.302 319.128 211.462 322.463 217.02C328.853 227.67 325.619 248.934 323.848 260.155C317.943 297.548 311.205 335.002 299.906 371.159C295.801 384.293 290.857 396.883 284.274 408.952C283.879 409.677 278.147 419.808 275.568 417.658C273.202 415.686 273.589 403.814 273.589 401.235C273.589 392.369 273.848 383.537 274.776 374.721C275.43 368.509 277.298 362.493 278.14 356.319C279.613 345.517 282.819 335.029 285.461 324.462C291.062 302.061 299.068 279.243 309.403 258.572C318.345 240.689 326.459 222.524 338.688 206.533C348.316 193.943 368.745 168.91 387.363 173.291C391.738 174.32 392.032 179.768 392.31 183.382C393.169 194.552 390.114 207.393 388.353 218.405C385.066 238.944 379.974 259.483 374.502 279.546C371.315 291.232 370.11 303.537 367.576 315.36C364.997 327.399 359.464 340.478 359.464 352.757" fill="none" opacity="1" stroke="#ffffff" stroke-linecap="round" stroke-linejoin="round" stroke-width="10"/>
<path d="M360.047 352.84C359.444 352.986 361.436 350.053 361.854 349.095C363.004 346.46 364.422 344.042 365.689 341.467C369.748 333.219 374.155 325.328 377.968 316.87C388.068 294.468 403.914 273.634 419.495 254.748C424.403 248.799 435.003 239.112 443.511 243.252C455.043 248.865 453.929 278.668 452.244 289.138C448.456 312.672 441.908 335.717 433.736 358.07C429.22 370.42 425.958 382.722 419.71 394.369C415.066 403.024 406.017 420.326 395.567 422.856C388.069 424.671 385.872 417.299 385.42 411.065C384.615 399.968 391.816 389.427 399.312 381.922C408.922 372.299 420.739 368.321 432.426 362.118C439.003 358.627 446.246 355.903 453.183 353.277C463.728 349.286 473.76 344.713 484.569 341.68" fill="none" opacity="1" stroke="#ffffff" stroke-linecap="round" stroke-linejoin="round" stroke-width="10"/>
<path d="M307.178 221.948C306.893 222.171 307.65 223.389 308.121 223.221C309.329 222.791 310.294 221.398 311.108 220.407C314.554 216.214 315.036 216.239 319.944 216.138" fill="none" opacity="1" stroke="#ffffff" stroke-linecap="round" stroke-linejoin="round" stroke-width="10"/>
<path d="M358.295 351.734C358.864 353.28 358.388 348.457 358.584 346.7C359.071 342.331 360.175 338.101 360.662 333.725C361.961 322.065 366.125 308.784 368.882 297.283C376.207 266.727 383.975 235.679 387.442 204.553C388.464 195.377 393.072 178.188 382.338 173.23" fill="none" opacity="1" stroke="#ffffff" stroke-linecap="round" stroke-linejoin="round" stroke-width="10"/>
<path d="M443.022 243.177C443.027 243.454 447.696 249.479 448.267 251.215C450.27 257.297 450.321 264.859 449.882 271.264C447.149 311.147 434.047 349.608 418.893 386.182C414.027 397.926 407.385 416.2 395.588 422.391" fill="none" opacity="1" stroke="#ffffff" stroke-linecap="round" stroke-linejoin="round" stroke-width="10"/>
</g>
</svg>
