<?xml version="1.0" encoding="UTF-8" standalone="no"?>
<!DOCTYPE svg PUBLIC "-//W3C//DTD SVG 1.1//EN" "http://www.w3.org/Graphics/SVG/1.1/DTD/svg11.dtd">
<!-- Created with Vectornator (http://vectornator.io/) -->
<svg height="100%" stroke-miterlimit="10" style="fill-rule:nonzero;clip-rule:evenodd;stroke-linecap:round;stroke-linejoin:round;" version="1.1" viewBox="0 0 841.995 595.35" width="100%" xml:space="preserve" xmlns="http://www.w3.org/2000/svg" xmlns:vectornator="http://vectornator.io" xmlns:xlink="http://www.w3.org/1999/xlink">
<g id="Layer-2" vectornator:layerName="Layer 2">
<path d="M287.615 292.239C293.907 288.89 299.183 282.118 303.796 276.864C315.136 263.947 325.328 250.712 331.547 234.646C332.906 231.134 335.452 227.954 336.11 224.162C337.331 217.13 338.305 208.903 336.212 201.931C334.429 195.992 321.2 190.173 315.628 189.416C289.349 185.849 259.892 199.993 239.917 215.89C220.647 231.227 201.089 247.241 184.471 265.49C162.343 289.79 142.1 322.051 131.414 353.398C124.082 374.906 118.295 402.208 128.174 423.543C131.103 429.871 136.512 432.247 142.561 434.88C159.757 442.365 180.365 432.17 196.368 425.734C200.417 424.105 204.455 422.392 208.285 420.286C227.236 409.864 246.298 399.927 264.079 387.407C283.158 373.974 300.818 358.846 319.184 344.453C333.726 333.057 348.328 322.064 362.008 309.627C374.965 297.848 388.997 285.524 397.327 270.044C398.48 267.901 403.57 260.219 403.627 258.337C403.685 256.39 405.176 251.933 404.01 250.277C403.309 249.281 397.606 246.174 396.485 246.227C394.282 246.33 386.594 249.236 384.331 250.11C381.656 251.143 379.769 253.31 377.665 255.15C370.046 261.81 362.721 268.551 357.176 277.193C343.917 297.859 330.709 320.426 324.008 344.173C321.384 353.473 320.825 363.255 318.484 372.472C316.721 379.414 315.207 387.292 314.996 394.318" fill="none" fill-rule="evenodd" opacity="1" stroke="#ffffff" stroke-linecap="round" stroke-linejoin="round" stroke-width="10"/>
<path d="M315.946 394.668C317.43 391.025 320.382 388.204 322.616 385.031C329.539 375.2 337.069 366.474 345.329 357.908C346.679 356.507 355.747 348.531 357.536 349.84C364.877 355.212 361.527 364.85 359.523 371.924C356.561 382.379 354.716 392.68 353.543 403.459C353.107 407.459 356.353 419.873 362.243 418.326C370.921 416.048 376.268 406.526 381.36 400.033C389.176 390.067 396.371 378.925 402.099 367.645C406.479 359.022 409.265 349.739 413.89 341.221C417.368 334.816 417.695 327.637 418.149 320.652C418.295 318.417 415.481 314.085 412.938 314.069C411.779 314.061 410.399 316.105 409.734 316.881C405.791 321.483 403.694 325.616 404.743 331.663C405.032 333.326 405.456 336.509 406.772 337.636C407.571 338.321 416.573 343.195 417.477 343.368C418.659 343.595 420.205 343.324 421.248 344.218C424.46 346.97 426.41 350.633 427.615 354.703C429.728 361.834 424.868 373.704 424.381 381.181C424.171 384.407 423.419 388.687 426.683 390.696C432.912 394.532 438.679 387.542 442.836 383.892C447.317 379.959 450.644 375.03 454.661 370.865C457.202 368.23 460.942 365.32 462.977 362.242C465.658 358.186 468.944 353.508 473.2 350.621" fill="none" fill-rule="evenodd" opacity="1" stroke="#ffffff" stroke-linecap="round" stroke-linejoin="round" stroke-width="10"/>
<path d="M474.622 350.338C475.648 353.091 473.048 356.841 472.388 359.44C470.513 366.821 468.326 373.858 467.501 381.551C467.01 386.124 468.556 392.077 474.362 391.27C475.08 391.17 475.807 390.268 476.31 389.862C480.034 386.86 484.191 384.709 487.482 381.18C497.024 370.945 507.124 356.339 512.549 343.449C514.645 338.468 519.797 328.458 513.896 324.191C511.292 322.308 509.63 324.53 507.927 326.245C504.654 329.544 504.738 335.759 506.282 339.902C507.448 343.03 509.625 343.646 511.553 346.036C513.908 348.958 516.137 352.125 518.491 355.045C523.699 361.506 526.169 373.245 524.113 381.338C523.463 383.896 522.255 386.021 521.378 388.41C519.595 393.267 514.124 398.974 508.557 399.071C500.108 399.218 493.99 392.898 490.38 385.982C489.408 384.12 489.701 381.891 488.858 380.07C486.205 374.339 486.837 366.769 492.305 363.014C502.176 356.236 510.613 365.623 521.014 365.016C529.161 364.541 535.588 362.895 542.987 359.47C544.895 358.587 546.304 356.443 548.24 355.722" fill="none" fill-rule="evenodd" opacity="1" stroke="#ffffff" stroke-linecap="round" stroke-linejoin="round" stroke-width="10"/>
<path d="M479.734 328.057L479.204 328.057L479.381 327.704L479.558 327.35L479.558 327.35" fill="none" fill-rule="evenodd" opacity="1" stroke="#ffffff" stroke-linecap="round" stroke-linejoin="round" stroke-width="10"/>
<path d="M581.528 238.085C579.146 240.467 578.697 245.002 577.226 247.943C574.033 254.329 571.958 261.597 569.698 268.377C568.813 271.031 568.655 274.037 567.547 276.622C565.166 282.178 564.289 288.211 562.708 294.009C560.215 303.15 558.324 312.585 557.151 321.97C554.31 344.703 548.828 368.286 552.67 391.337C554.498 402.304 555.279 415.847 562.17 425.035C563.011 426.156 563.157 427.634 564.142 428.62" fill="none" fill-rule="evenodd" opacity="1" stroke="#ffffff" stroke-linecap="round" stroke-linejoin="round" stroke-width="10"/>
<path d="M536.208 331.958C541.61 338.249 557.168 336.708 564.317 336.039C567.49 335.743 570.321 336.108 573.378 334.969" fill="none" fill-rule="evenodd" opacity="1" stroke="#ffffff" stroke-linecap="round" stroke-linejoin="round" stroke-width="10"/>
<path d="M585.168 362.969C585.541 365.305 583.957 368.895 583.56 371.301C582.202 379.527 583.756 390.238 589.281 396.817C595.15 403.805 602.374 394.999 604.619 389.416C609.065 378.358 610.76 368.082 608.874 356.252C608.36 353.031 608.015 349.96 606.316 347.116C603.646 342.649 594.819 342.172 590.547 343.758C588.067 344.679 584.931 344.489 582.636 345.937C574.018 351.377 564.968 362.692 571.182 373.091C573.334 376.691 578.547 377.667 582.261 378.115C592.912 379.401 604.654 370.047 613.93 366.091C616.293 365.083 621.073 360.269 623.883 361.751C628.837 364.364 627.154 379.412 626.734 384.237C625.772 395.29 624.761 406.408 624.326 417.473C624.117 422.793 623.088 428.277 623.051 433.644C623.017 438.485 622.476 443.375 622.442 448.24C622.433 449.524 622.818 451.63 622.439 452.829" fill="none" fill-rule="evenodd" opacity="1" stroke="#ffffff" stroke-linecap="round" stroke-linejoin="round" stroke-width="10"/>
<path d="M626.571 384.518C626.028 382.243 629.885 376.648 630.903 374.409C634.33 366.869 642.435 358.519 650.05 355.38C650.583 355.16 653.475 355.891 654.172 356.163C656.129 356.924 657.514 361.136 658.345 362.876C662.438 371.446 659.958 388.409 655.567 396.305C652.835 401.218 644.407 410.915 639.975 401.635C634.501 390.173 650.141 380.881 657.177 374.799C666.034 367.143 675.694 360.449 684.709 352.885C694.167 344.95 702.504 335.288 710.682 326.123C715.162 321.103 720.676 316.659 724.426 311.035C728.552 304.845 732.319 298.616 735.992 292.211C737.024 290.412 738.702 288.683 739.422 286.734C740.846 282.876 741.705 278.61 738.021 275.825C734.679 273.298 729.861 275.32 726.642 276.937C717.816 281.371 711.776 289.422 705.817 297.008C696.348 309.063 691.462 323.357 685.65 337.321C683.09 343.472 681.982 350.288 679.556 356.525C678.368 359.578 678.301 363.101 677.293 366.22C675.928 370.449 675.472 374.588 674.867 378.927C674.12 384.281 672.239 390.116 673.518 395.471" fill="none" fill-rule="evenodd" opacity="1" stroke="#ffffff" stroke-linecap="round" stroke-linejoin="round" stroke-width="10"/>
<path d="M673.411 397.37C676.983 394.998 679.245 390.183 682.407 387.187C689.794 380.188 697.484 372.739 705.714 366.717C710.274 363.381 717.502 358.766 723.136 361.999C726.5 363.929 723.959 376.297 723.128 379.231C720.341 389.074 716.795 398.566 714.347 408.457C712.959 414.062 711.541 419.36 713.729 424.919C714.611 427.158 716.782 430.77 719.327 431.284C727.59 432.952 744.715 420.009 748.622 413.199" fill="none" fill-rule="evenodd" opacity="1" stroke="#ffffff" stroke-linecap="round" stroke-linejoin="round" stroke-width="10"/>
<path d="M285.88 293.309C282.692 292.772 279.897 288.337 283.384 285.855C285.35 284.456 287.848 284.082 289.775 282.711C292.941 280.457 296.084 277.752 299.024 275.124C304.42 270.303 309.418 265.093 313.648 259.299C316.366 255.574 320.091 252.356 322.523 248.367C327.708 239.858 331.515 230.762 334.998 221.628C337.307 215.572 336.65 207.493 333.663 201.708C332.665 199.775 332.817 197.762 330.822 196.306" fill="none" fill-rule="evenodd" opacity="1" stroke="#ffffff" stroke-linecap="round" stroke-linejoin="round" stroke-width="10"/>
<path d="M295.026 278.538C292.672 281.841 286.852 283.154 283.007 282.952C281.825 282.89 280.429 282.809 279.314 283.4C278.081 284.055 277.048 285.639 276.653 286.93C275.244 291.524 282.274 292.066 285.307 291.557" fill="none" fill-rule="evenodd" opacity="1" stroke="#ffffff" stroke-linecap="round" stroke-linejoin="round" stroke-width="10"/>
<path d="M280.834 289.396C278.567 289.777 281.637 291.025 282.433 291.269C282.776 291.374 280.028 290.641 280.045 291.327C280.056 291.797 282.664 292.328 283.059 292.448" fill="none" fill-rule="evenodd" opacity="1" stroke="#ffffff" stroke-linecap="round" stroke-linejoin="round" stroke-width="10"/>
<path d="M125.107 424.227" fill="none" fill-rule="evenodd" opacity="1" stroke="#ffffff" stroke-linecap="round" stroke-linejoin="round" stroke-width="10"/>
<path d="M331.151 195.641" fill="none" fill-rule="evenodd" opacity="1" stroke="#ffffff" stroke-linecap="round" stroke-linejoin="round" stroke-width="10"/>
<path d="M313.098 392.834C313.098 389.902 312.179 386.933 312.614 383.881C313.691 376.344 315.973 369.025 317.454 361.62C324.118 328.297 339.525 298.397 359.799 271.364C367.28 261.39 376.779 252.954 387.868 247.409C392.132 245.277 399.693 243.232 402.386 248.619" fill="none" fill-rule="evenodd" opacity="1" stroke="#ffffff" stroke-linecap="round" stroke-linejoin="round" stroke-width="10"/>
<path d="M473.078 352.202C473.078 352.033 472.061 354.96 471.797 355.883C471.045 358.516 469.922 361.028 469.077 363.565C467.145 369.361 463.926 387.398 470.677 390.773" fill="none" fill-rule="evenodd" opacity="1" stroke="#ffffff" stroke-linecap="round" stroke-linejoin="round" stroke-width="10"/>
<path d="M510.638 323.481C510.478 323.048 509.49 323.63 509.104 323.772C506.791 324.623 505.796 327.131 505.136 329.333C503.503 334.791 505.949 340.524 508.749 345.091C511.456 349.506 515.826 353.11 518.749 357.404C527.414 370.134 523.352 400.288 503.65 398.093" fill="none" fill-rule="evenodd" opacity="1" stroke="#ffffff" stroke-linecap="round" stroke-linejoin="round" stroke-width="10"/>
<path d="M566.073 431.312C566.193 431.857 565.206 430.438 564.757 429.884C563.783 428.679 562.628 427.581 561.945 426.21C559.922 422.141 558.497 418.112 556.802 413.889C551.856 401.567 549.406 386.553 549.777 373.505C550.744 339.464 556.312 304.395 567.211 271.927C569.999 263.621 572.258 253.573 576.997 246.161C578.466 243.863 578.602 239.476 580.729 237.755" fill="none" fill-rule="evenodd" opacity="1" stroke="#ffffff" stroke-linecap="round" stroke-linejoin="round" stroke-width="10"/>
<path d="M573.2 256.377C572.724 255.641 573.847 253.313 574.074 252.495C574.995 249.178 576.112 244.701 578.298 241.974C578.724 241.444 578.595 240.593 579.281 240.151" fill="none" fill-rule="evenodd" opacity="1" stroke="#ffffff" stroke-linecap="round" stroke-linejoin="round" stroke-width="10"/>
<path d="M584.981 363.313C584.86 364.866 583.809 366.522 583.555 368.159C582.368 375.784 580.627 385.117 585.108 391.907C587.365 395.326 588.994 398.939 593.327 399.276" fill="none" fill-rule="evenodd" opacity="1" stroke="#ffffff" stroke-linecap="round" stroke-linejoin="round" stroke-width="10"/>
<path d="M672.477 398.036C671.633 395.804 673.184 391.138 673.334 388.838C673.803 381.661 675.373 374.156 676.994 367.124C682.308 344.076 690.096 320.461 703.133 300.59C709.815 290.403 718.223 280.025 729.821 275.641" fill="none" fill-rule="evenodd" opacity="1" stroke="#ffffff" stroke-linecap="round" stroke-linejoin="round" stroke-width="10"/>
<path d="M130.674 427.488C129.492 426.897 129.209 424.463 128.465 423.47C124.296 417.912 122.791 408.661 121.836 401.976C118.539 378.899 126.503 356.096 135.696 335.083C137.611 330.706 140.447 326.809 142.325 322.428C143.985 318.555 146.693 315.5 148.553 311.781C154.495 299.897 162.946 289.019 170.649 278.234C182.422 261.753 195.871 245.203 212.03 232.635C220.729 225.869 229.975 219.868 239.149 213.752C258.45 200.885 277.892 191.361 300.016 185.83C308 183.834 317.816 186.594 324.724 190.048C327.09 191.231 331.458 198.485 332.558 198.485" fill="none" fill-rule="evenodd" opacity="1" stroke="#ffffff" stroke-linecap="round" stroke-linejoin="round" stroke-width="10"/>
<path d="M317.712 188.03C321.023 187.942 327.431 190.038 329.56 192.807C330.652 194.227 331.936 195.518 333.077 196.908C333.249 197.117 334.35 199.17 334.595 199.039C334.664 199.002 334.271 198.255 334.235 198.188C333.57 196.942 332.293 195.709 331.151 194.899C330.948 194.755 330.541 194.466 330.541 194.466C330.541 194.466 331.011 194.708 331.225 194.86C332.367 195.67 332.881 196.718 333.555 197.981" fill="none" fill-rule="evenodd" opacity="1" stroke="#ffffff" stroke-linecap="round" stroke-linejoin="round" stroke-width="10"/>
</g>
</svg>
