<?xml version="1.0" encoding="UTF-8" standalone="no"?>
<!DOCTYPE svg PUBLIC "-//W3C//DTD SVG 1.1//EN" "http://www.w3.org/Graphics/SVG/1.1/DTD/svg11.dtd">
<!-- Created with Vectornator (http://vectornator.io/) -->
<svg height="100%" stroke-miterlimit="10" style="fill-rule:nonzero;clip-rule:evenodd;stroke-linecap:round;stroke-linejoin:round;" version="1.1" viewBox="0 0 900 200" width="100%" xml:space="preserve" xmlns="http://www.w3.org/2000/svg" xmlns:vectornator="http://vectornator.io" xmlns:xlink="http://www.w3.org/1999/xlink">
<g clip-path="url(#ArtboardFrame)" id="Layer-2" vectornator:layerName="Layer 2" transform="translate(-5,-200)">
<path d="M-34.145 178.68C-35.2137 177.878-35.3765 178.134-34.3656 177.797" fill="none" opacity="1" stroke="#ffffff" stroke-linecap="round" stroke-linejoin="round" stroke-width="6"/>
<path d="M96.7176 257.373C96.7176 280.478 97.9729 302.945 93.4516 325.552C92.1666 331.977 86.6492 344.987 78.142 343.923C69.0118 342.782 63.2224 314.329 69.7728 312.692C73.8131 311.682 77.9179 317.571 80.3874 320.04C91.9862 331.639 116.725 350.777 129.786 332.492C132.194 329.121 134.211 325.151 135.706 321.265C137.828 315.748 138.442 309.337 138.972 303.506C139.708 295.407 137.745 286.749 136.931 278.603C135.387 263.169 125.082 244.31 107.128 246.555C97.3773 247.773 88.8708 257.697 83.4493 264.926C81.4963 267.53 79.6833 270.288 77.7338 272.887C77.17 273.639 75.3131 276.679 75.6925 275.541" fill="none" opacity="1" stroke="#ffffff" stroke-linecap="round" stroke-linejoin="round" stroke-width="6"/>
<path d="M172.226 299.759C171.064 299.178 176.5 285.412 165.9 289.955C159.092 292.872 145.99 323.535 153.249 324.745C161.751 326.162 164.144 309.405 169.063 309.405C169.681 309.405 169.379 311.604 169.379 312.094C169.379 315.959 168.915 319.853 171.909 322.847C176.407 327.345 186.315 313.17 187.881 310.038" fill="none" opacity="1" stroke="#ffffff" stroke-linecap="round" stroke-linejoin="round" stroke-width="6"/>
<path d="M211.443 289.164C210.404 288.644 211.06 285.753 208.755 285.369C200.202 283.943 189.224 291.451 191.202 301.34C192.574 308.201 200.35 308.311 203.378 313.359C209.959 324.326 207.931 351.596 189.146 348.465C181.134 347.13 182.741 337.016 187.407 333.284C195.069 327.154 208.804 322.847 218.56 322.847" fill="none" opacity="1" stroke="#ffffff" stroke-linecap="round" stroke-linejoin="round" stroke-width="6"/>
<path d="M252.25 307.549C258.18 305.256 266.4 310.184 272.286 303.712C281.115 294.006 267.125 289.113 259.642 295.3C249.149 303.974 246.165 332.214 265.736 331.287C284.895 330.38 295.285 302.916 299.876 287.642C301.395 282.589 301.74 267.225 292.203 270.029C270.785 276.325 305.02 291.837 306.757 296.327C309.352 303.037 299.207 329.678 305.671 331.961C314.516 335.086 321.341 309.211 324.352 304.39" fill="none" opacity="1" stroke="#ffffff" stroke-linecap="round" stroke-linejoin="round" stroke-width="6"/>
<path d="M325.277 303.921C322.753 308.969 326.698 326.437 333.342 327.267C340.157 328.119 343.449 315.018 345.228 310.571C345.297 310.398 345.759 308.731 345.935 308.731C346.313 308.731 346.61 312.154 346.643 312.41C347.902 322.483 354.291 333.813 362.915 322.315C368.737 314.552 370.871 288.574 361.075 282.696C357.945 280.818 353.871 273.746 349.331 276.47C342.325 280.674 348.826 290.256 352.585 294.016C357.636 299.066 375.009 299.784 381.167 296.704" fill="none" opacity="1" stroke="#ffffff" stroke-linecap="round" stroke-linejoin="round" stroke-width="6"/>
<path d="M396.332 300.162C399.123 295.684 395.435 289.125 390.048 291.706C382.107 295.509 377.692 312.608 382.269 320.076C387.746 329.015 394.659 310.492 395.745 310.594C397.733 310.781 396.191 321.701 403.324 320.614C418.822 318.252 420.636 286.436 420.078 274.865C419.875 270.653 415.946 263.309 410.943 267.452C407.021 270.7 407.066 277.094 410.205 280.885C416.258 288.194 426.378 285.895 431.269 293.876C437.318 303.749 431.223 313.5 440.909 325.196" fill="none" opacity="1" stroke="#ffffff" stroke-linecap="round" stroke-linejoin="round" stroke-width="6"/>
<path d="M454.107 234.503C452.65 241.774 453.919 249.673 453.506 257.051C452.066 282.782 453.454 327.677 468.213 349.835" fill="none" opacity="1" stroke="#ffffff" stroke-linecap="round" stroke-linejoin="round" stroke-width="6"/>
<path d="M506.718 232.006C505.181 239.677 506.156 248.973 506.46 256.75C507.199 275.674 507.578 294.492 510.882 313.161C512.812 324.065 518.071 333.958 520.879 344.27" fill="none" opacity="1" stroke="#ffffff" stroke-linecap="round" stroke-linejoin="round" stroke-width="6"/>
<path d="M441.712 303.655C443.078 303.38 446.728 306.034 448.589 306.221C458.562 307.221 469.159 306.531 478.089 301.414C482.05 299.145 493.559 283.017 481.699 284.685C469.276 286.433 465.235 307.575 480.09 309.065C496.7 310.731 510.161 301.633 525.962 297.169" fill="none" opacity="1" stroke="#ffffff" stroke-linecap="round" stroke-linejoin="round" stroke-width="6"/>
<path d="M570.785 296.437C569.412 293.691 576.93 296.178 579.97 295.744C584.686 295.07 596.748 290.728 595.394 283.959C591.83 266.14 552.264 295.42 569.052 312.208C587.761 330.917 602.098 289.408 610.645 286.559C611.597 286.242 610.183 291.875 610.125 292.278C609.673 295.445 608.545 305.477 611.511 307.702C622.034 315.594 633.51 289.941 640.107 288.292C641.149 288.031 640.366 291.591 640.28 292.105C639.703 295.569 638.429 301.249 640.8 304.409C643.264 307.695 654.607 306.431 656.397 302.85" fill="none" opacity="1" stroke="#ffffff" stroke-linecap="round" stroke-linejoin="round" stroke-width="6"/>
<path d="M683.259 287.252C683.259 262.295 639.206 305.183 667.835 309.955C690.004 313.65 711.57 273.47 716.534 256.924C717.944 252.223 722.244 230.709 714.108 228.675C699.499 225.023 701.503 270.683 700.417 277.2C700.189 278.569 700.243 276.889 700.243 278.24C700.243 285.606 700.243 293.078 700.243 300.423C700.243 300.721 700.243 303.369 700.243 303.369C701.711 303.369 717.338 281.66 723.639 286.386C734.833 294.781 714.377 340.283 735.597 340.283" fill="none" opacity="1" stroke="#ffffff" stroke-linecap="round" stroke-linejoin="round" stroke-width="6"/>
<path d="M701.959 277.223C702.302 276.958 700.714 276.047 700.562 276.599" fill="none" opacity="1" stroke="#ffffff" stroke-linecap="round" stroke-linejoin="round" stroke-width="6"/>
<path d="M749.379 313.957L749.379 312.82L749 312.063L747.864 312.441L747.485 313.578L747.485 314.714L748.242 315.093L749.379 315.093L750.137 314.714L750.515 313.957L750.515 312.82L750.515 311.684L749.758 311.305L748.621 311.684L748.242 312.441L748.242 313.578L748.621 314.336L749.379 313.957L749.758 313.199L749.758 313.199" fill="none" opacity="1" stroke="#ffffff" stroke-linecap="round" stroke-linejoin="round" stroke-width="6"/>
<path d="M777.412 312.063L776.654 312.063L775.897 312.441L775.897 313.578L775.897 314.714L776.654 315.093L777.412 315.093L778.17 314.714L778.927 313.957L778.927 312.82L778.548 312.063L777.412 312.063L776.654 312.063L775.897 312.441L775.518 313.199L775.518 314.336L775.518 315.472L776.654 315.472L777.412 315.472L778.17 314.714L778.548 313.957L778.927 313.199L778.548 312.441L777.791 312.063L777.033 312.063L776.275 312.441L775.518 313.199L775.518 313.199" fill="none" opacity="1" stroke="#ffffff" stroke-linecap="round" stroke-linejoin="round" stroke-width="6"/>
<path d="M805.445 312.82L805.066 312.063L804.687 311.305L803.93 311.305L803.172 311.684L802.793 312.441L802.414 313.199L802.414 314.336L802.793 315.093L803.551 315.093L804.687 315.093L805.445 314.714L805.824 313.957L806.203 313.199L806.203 312.063L805.445 311.684L804.687 311.684L803.93 312.441L803.551 313.199L803.551 314.336L803.551 314.336" fill="none" opacity="1" stroke="#ffffff" stroke-linecap="round" stroke-linejoin="round" stroke-width="6"/>
</g>
</svg>
