<?xml version="1.0" encoding="UTF-8" standalone="no"?>
<!DOCTYPE svg PUBLIC "-//W3C//DTD SVG 1.1//EN" "http://www.w3.org/Graphics/SVG/1.1/DTD/svg11.dtd">
<!-- Created with Vectornator (http://vectornator.io/) -->
<svg height="100%" stroke-miterlimit="10" style="fill-rule:nonzero;clip-rule:evenodd;stroke-linecap:round;stroke-linejoin:round;" version="1.1" viewBox="0 0 2400 400" width="100%" xml:space="preserve" xmlns="http://www.w3.org/2000/svg" xmlns:vectornator="http://vectornator.io" xmlns:xlink="http://www.w3.org/1999/xlink">
<g id="Layer-2" vectornator:layerName="Layer 2" transform="translate(500,-230)">
<path d="M186.315 530.216C225.765 471.041 246.439 421.443 282.684 361.034C296.672 337.721 316.419 297.134 328.371 273.231" fill="none" opacity="1" stroke="#ffffff" stroke-linecap="round" stroke-linejoin="round" stroke-width="22.4144"/>
<path d="M281.041 267.261C284.871 264.43 329.506 268.551 337.47 268.304C370.336 267.286 432.177 268.715 460.071 253.671" fill="none" opacity="1" stroke="#ffffff" stroke-linecap="round" stroke-linejoin="round" stroke-width="14.9318"/>
<path d="M263.275 398.908C268.925 404.645 291.438 403.419 299.036 403.477C329.351 403.709 366.746 409.41 395.953 399.922" fill="none" opacity="1" stroke="#ffffff" stroke-linecap="round" stroke-linejoin="round" stroke-width="14.1665"/>
<path d="M347.402 578.681C343.906 571.688 351.368 558.067 354.536 551.732C368.345 524.114 388.596 498.102 412 477.624C467.839 428.765 519.109 374.458 578.05 328.615C599.927 311.599 621.18 292.463 644.232 277.096C655.198 269.785 669.809 262.615 678.71 253.714" fill="none" opacity="1" stroke="#ffffff" stroke-linecap="round" stroke-linejoin="round" stroke-width="12.9359"/>
<path d="M670.388 266.395C670.388 285.864 657.159 307.178 653.347 326.237C640.362 391.163 629.569 462.224 629.569 529.143" fill="none" opacity="1" stroke="#ffffff" stroke-linecap="round" stroke-linejoin="round" stroke-width="22.0984"/>
<path d="M681.788 254.546C680.774 256.574 679.864 260.141 679.409 262.415C679.122 263.853 678.128 268.09 678.128 266.624C678.128 265.49 680.553 254.363 681.605 254.363C681.885 254.363 681.297 257.859 681.239 258.206C680.405 263.212 677.762 273.029 677.762 273.029C677.762 273.029 677.986 271.318 678.128 270.467C678.38 268.956 681.425 254.363 682.337 254.363C682.728 254.363 681.49 259.511 681.422 259.853C680.669 263.618 680.011 268.898 678.311 272.297" fill="none" opacity="1" stroke="#ffffff" stroke-linecap="round" stroke-linejoin="round" stroke-width="5.11882"/>
<path d="M488.368 410.3C487.647 410.078 491.399 411.992 492.85 412.319C496.109 413.055 499.335 413.6 502.723 413.83C512.569 414.5 522.598 416.849 532.492 416.624C548.928 416.249 619.422 413.677 630.662 424.416" fill="none" opacity="1" stroke="#ffffff" stroke-linecap="round" stroke-linejoin="round" stroke-width="9.37655"/>
<path d="M929.055 264.101C910.333 254.74 859.643 281.208 845.808 291.85C832.426 302.144 821.86 313.037 810.723 325.659C772.749 368.696 710.526 489.1 785.525 526.6C876.823 572.249 977.761 480.635 1005.28 398.062C1019.08 356.685 1023.01 284.363 971.795 267.291" fill="none" opacity="1" stroke="#ffffff" stroke-linecap="round" stroke-linejoin="round" stroke-width="9.37655"/>
<path d="M711.654 556.558C723.814 539.842 738.309 527.588 754.603 515.369C767.186 505.935 781.267 498.274 795.383 491.584C890.576 446.471 918.291 566.031 969.497 612.744C1005.19 645.304 1055.36 594.282 1068.46 561.849" fill="none" opacity="1" stroke="#ffffff" stroke-linecap="round" stroke-linejoin="round" stroke-width="9.37655"/>
<path d="M900.572 265.078C889.748 267.347 874.063 273.861 870.077 275.777C847.419 286.668 828.708 301.724 810.526 319.145C777.358 350.926 752.733 399.137 743.661 443.208C740.244 459.811 741.342 480.34 750.951 494.929C761.668 511.202 778.079 525.623 799.082 532.32" fill="none" opacity="1" stroke="#ffffff" stroke-linecap="round" stroke-linejoin="round" stroke-width="9.37655"/>
<path d="M973.146 266.796C978.448 264.873 990.975 271.505 994.642 275.228C1018.53 299.48 1023.06 318.993 1021.68 346.094C1019.96 380.073 1018.79 381.88 1005.24 413.257C998.398 429.11 985.11 447.85 977.164 459.61C966.168 475.886 935.755 502.099 906.614 518.801" fill="none" opacity="1" stroke="#ffffff" stroke-linecap="round" stroke-linejoin="round" stroke-width="9.37655"/>
<path d="M847.758 483.285C865.069 483.285 880.573 500.611 891.214 511.251C923.196 543.233 943.06 630.647 1000.93 622.902" fill="none" opacity="1" stroke="#ffffff" stroke-linecap="round" stroke-linejoin="round" stroke-width="9.37655"/>
</g>
</svg>
