<?xml version="1.0" encoding="UTF-8" standalone="no"?>
<!DOCTYPE svg PUBLIC "-//W3C//DTD SVG 1.1//EN" "http://www.w3.org/Graphics/SVG/1.1/DTD/svg11.dtd">
<!-- Created with Vectornator (http://vectornator.io/) -->
<svg height="100%" stroke-miterlimit="10" style="fill-rule:nonzero;clip-rule:evenodd;stroke-linecap:round;stroke-linejoin:round;" version="1.1" viewBox="0 0 841.995 595.35" width="100%" xml:space="preserve" xmlns="http://www.w3.org/2000/svg" xmlns:vectornator="http://vectornator.io" xmlns:xlink="http://www.w3.org/1999/xlink">
<g clip-path="url(#ArtboardFrame)" id="Layer-3" vectornator:layerName="Layer 3">
<path d="M307.425 222.362C307.425 216.302 319.128 211.462 322.463 217.02C328.853 227.67 325.619 248.934 323.848 260.155C317.943 297.548 311.205 335.002 299.906 371.159C295.801 384.293 290.857 396.883 284.274 408.952C283.879 409.677 278.147 419.808 275.568 417.658C273.202 415.686 273.589 403.814 273.589 401.235C273.589 392.369 273.848 383.537 274.776 374.721C275.43 368.509 277.298 362.493 278.14 356.319C279.613 345.517 282.819 335.029 285.461 324.462C291.062 302.061 299.068 279.243 309.403 258.572C318.345 240.689 326.459 222.524 338.688 206.533C348.316 193.943 368.745 168.91 387.363 173.291C391.738 174.32 392.032 179.768 392.31 183.382C393.169 194.552 390.114 207.393 388.353 218.405C385.066 238.944 379.974 259.483 374.502 279.546C371.315 291.232 370.11 303.537 367.576 315.36C364.997 327.399 359.464 340.478 359.464 352.757" fill="none" opacity="1" stroke="#ffffff" stroke-linecap="round" stroke-linejoin="round" stroke-width="10"/>
<path d="M360.047 352.84C359.444 352.986 361.436 350.053 361.854 349.095C363.004 346.46 364.422 344.042 365.689 341.467C369.748 333.219 374.155 325.328 377.968 316.87C388.068 294.468 403.914 273.634 419.495 254.748C424.403 248.799 435.003 239.112 443.511 243.252C455.043 248.865 453.929 278.668 452.244 289.138C448.456 312.672 441.908 335.717 433.736 358.07C429.22 370.42 425.958 382.722 419.71 394.369C415.066 403.024 406.017 420.326 395.567 422.856C388.069 424.671 385.872 417.299 385.42 411.065C384.615 399.968 391.816 389.427 399.312 381.922C408.922 372.299 420.739 368.321 432.426 362.118C439.003 358.627 446.246 355.903 453.183 353.277C463.728 349.286 473.76 344.713 484.569 341.68" fill="none" opacity="1" stroke="#ffffff" stroke-linecap="round" stroke-linejoin="round" stroke-width="10"/>
<path d="M483.721 341.802C477.234 343.29 471.041 347.13 466.674 352.431" fill="none" opacity="1" stroke="#ffffff" stroke-linecap="round" stroke-linejoin="round" stroke-width="10"/>
<path d="M307.178 221.948C306.893 222.171 307.65 223.389 308.121 223.221C309.329 222.791 310.294 221.398 311.108 220.407C314.554 216.214 315.036 216.239 319.944 216.138" fill="none" opacity="1" stroke="#ffffff" stroke-linecap="round" stroke-linejoin="round" stroke-width="10"/>
<path d="M358.295 351.734C358.864 353.28 358.388 348.457 358.584 346.7C359.071 342.331 360.175 338.101 360.662 333.725C361.961 322.065 366.125 308.784 368.882 297.283C376.207 266.727 383.975 235.679 387.442 204.553C388.464 195.377 393.072 178.188 382.338 173.23" fill="none" opacity="1" stroke="#ffffff" stroke-linecap="round" stroke-linejoin="round" stroke-width="10"/>
<path d="M443.022 243.177C443.027 243.454 447.696 249.479 448.267 251.215C450.27 257.297 450.321 264.859 449.882 271.264C447.149 311.147 434.047 349.608 418.893 386.182C414.027 397.926 407.385 416.2 395.588 422.391" fill="none" opacity="1" stroke="#ffffff" stroke-linecap="round" stroke-linejoin="round" stroke-width="10"/>
<path d="M600.762 1173.05C602.268 1155.05 603.677 1137.08 604.702 1119.05" fill="none" opacity="1" stroke="#ffffff" stroke-linecap="round" stroke-linejoin="round" stroke-width="10"/>
<path d="M604.47 1184.65C603.594 1171.89 603.361 1159.06 603.7 1146.27" fill="none" opacity="1" stroke="#ffffff" stroke-linecap="round" stroke-linejoin="round" stroke-width="10"/>
</g>
</svg>
