<?xml version="1.0" encoding="UTF-8" standalone="no"?>
<!DOCTYPE svg PUBLIC "-//W3C//DTD SVG 1.1//EN" "http://www.w3.org/Graphics/SVG/1.1/DTD/svg11.dtd">
<!-- Created with Vectornator (http://vectornator.io/) -->
<svg height="100%" stroke-miterlimit="10" style="fill-rule:nonzero;clip-rule:evenodd;stroke-linecap:round;stroke-linejoin:round;" version="1.1" viewBox="0 0 841.995 595.35" width="100%" xml:space="preserve" xmlns="http://www.w3.org/2000/svg" xmlns:vectornator="http://vectornator.io" xmlns:xlink="http://www.w3.org/1999/xlink">
<g id="Layer-3" vectornator:layerName="Layer 3">
<path d="M307.425 222.362C307.425 216.302 319.128 211.462 322.463 217.02C328.853 227.67 325.619 248.934 323.848 260.155C317.943 297.548 311.205 335.002 299.906 371.159C295.801 384.293 290.857 396.883 284.274 408.952C283.879 409.677 278.147 419.808 275.568 417.658C273.202 415.686 273.589 403.814 273.589 401.235C273.589 392.369 273.848 383.537 274.776 374.721C275.43 368.509 277.298 362.493 278.14 356.319C279.613 345.517 282.819 335.029 285.461 324.462C291.062 302.061 299.068 279.243 309.403 258.572C318.345 240.689 326.459 222.524 338.688 206.533C348.316 193.943 368.745 168.91 387.363 173.291C391.738 174.32 392.032 179.768 392.31 183.382C393.169 194.552 390.114 207.393 388.353 218.405C385.066 238.944 379.974 259.483 374.502 279.546C371.315 291.232 370.11 303.537 367.576 315.36C364.997 327.399 359.464 340.478 359.464 352.757" fill="none" fill-rule="evenodd" opacity="1" stroke="#ffffff" stroke-linecap="round" stroke-linejoin="round" stroke-width="10"/>
<path d="M360.047 352.84C359.444 352.986 361.436 350.053 361.854 349.095C363.004 346.46 364.422 344.042 365.689 341.467C369.748 333.219 374.155 325.328 377.968 316.87C388.068 294.468 403.914 273.634 419.495 254.748C424.403 248.799 435.003 239.112 443.511 243.252C455.043 248.865 453.929 278.668 452.244 289.138C448.456 312.672 441.908 335.717 433.736 358.07C429.22 370.42 425.958 382.722 419.71 394.369C415.066 403.024 406.017 420.326 395.567 422.856C388.069 424.671 385.872 417.299 385.42 411.065C384.615 399.968 391.816 389.427 399.312 381.922C408.922 372.299 420.739 368.321 432.426 362.118C439.003 358.627 446.246 355.903 453.183 353.277C464.905 348.84 475.994 343.685 488.222 340.725" fill="none" fill-rule="evenodd" opacity="1" stroke="#ffffff" stroke-linecap="round" stroke-linejoin="round" stroke-width="10"/>
<path d="M483.721 341.802C474.236 343.977 465.378 351.182 461.94 360.632C460.457 364.709 458.53 379.983 466.293 379.043C470.791 378.498 475.285 372.052 477.766 368.741C481.225 364.126 483.591 358.289 487.234 353.98" fill="none" fill-rule="evenodd" opacity="1" stroke="#ffffff" stroke-linecap="round" stroke-linejoin="round" stroke-width="10"/>
<path d="M488.017 353.201C488.17 352.154 487.25 355.184 487.047 356.222C486.635 358.33 486.254 360.433 485.942 362.562C485.202 367.613 484.009 383.548 493.151 381.719C497.267 380.895 500.334 375.249 502.8 372.238C505.946 368.393 507.966 364.286 510.393 359.995C515.87 350.315 521.567 341.191 524.738 330.466C525.703 327.201 532.239 309.164 523.337 310.052C517.201 310.664 514.76 319.201 516.179 324.116C519.296 334.91 533.086 331.631 534.722 343.879C536.197 354.928 532.687 366.149 531.084 377.086C530.569 380.605 529.687 387.196 534.116 388.777C537.88 390.121 543.569 384.645 546.433 382.675C554.141 377.369 559.021 367.966 564.439 360.536C566.943 357.101 569.355 352.125 572.716 349.624" fill="none" fill-rule="evenodd" opacity="1" stroke="#ffffff" stroke-linecap="round" stroke-linejoin="round" stroke-width="10"/>
<path d="M573.909 348.062C573.909 350.298 572.704 352.577 572.426 354.805C572.183 356.745 571.678 358.638 571.482 360.603C570.87 366.719 566.292 391.597 579.708 379.213C581.128 377.902 582.676 376.353 583.888 374.898C586.306 371.997 588.55 368.271 591.44 365.863" fill="none" fill-rule="evenodd" opacity="1" stroke="#ffffff" stroke-linecap="round" stroke-linejoin="round" stroke-width="10"/>
<path d="M582.405 322.305C581.978 321.452 580.809 323.474 580.382 324.327" fill="none" fill-rule="evenodd" opacity="1" stroke="#ffffff" stroke-linecap="round" stroke-linejoin="round" stroke-width="10"/>
<path d="M624.635 249.576C622.364 251.732 622.278 257.054 621.493 259.877C618.881 269.271 616.31 278.712 613.42 288.032C609.715 299.981 608.202 312.256 605.046 324.308C597.858 351.758 586.65 388.52 602.324 414.637" fill="none" fill-rule="evenodd" opacity="1" stroke="#ffffff" stroke-linecap="round" stroke-linejoin="round" stroke-width="10"/>
<path d="M623.787 248.229C621.177 250.705 621.369 255.96 620.232 259.093C616.724 268.764 615.299 279.033 612.822 288.944C611.698 293.443 610.049 297.815 608.849 302.272C605.557 314.495 603.545 327.147 600.144 339.379C596.784 351.465 593.838 363.542 592.467 376.027C591.44 385.384 592.566 394.777 596.432 403.437C597.724 406.331 598.89 410.201 601.098 412.528" fill="none" fill-rule="evenodd" opacity="1" stroke="#ffffff" stroke-linecap="round" stroke-linejoin="round" stroke-width="10"/>
<path d="M584.801 342.206C586.75 343.595 586.977 344.471 589.604 345.479C596.09 347.969 604.782 347.337 611.589 347.171" fill="none" fill-rule="evenodd" opacity="1" stroke="#ffffff" stroke-linecap="round" stroke-linejoin="round" stroke-width="10"/>
<path d="M519.162 328.975C518.615 328.975 519.128 329.369 519.298 329.653C520.704 331.997 522.504 333.684 524.592 335.354C529.375 339.181 531.432 341.699 532.329 347.977C533.816 358.39 529.207 369.109 529.207 379.603C529.207 382.389 529.113 388.969 533.007 388.969" fill="none" fill-rule="evenodd" opacity="1" stroke="#ffffff" stroke-linecap="round" stroke-linejoin="round" stroke-width="10"/>
<path d="M307.178 221.948C306.893 222.171 307.65 223.389 308.121 223.221C309.329 222.791 310.294 221.398 311.108 220.407C314.554 216.214 315.036 216.239 319.944 216.138" fill="none" fill-rule="evenodd" opacity="1" stroke="#ffffff" stroke-linecap="round" stroke-linejoin="round" stroke-width="10"/>
<path d="M358.295 351.734C358.864 353.28 358.388 348.457 358.584 346.7C359.071 342.331 360.175 338.101 360.662 333.725C361.961 322.065 366.125 308.784 368.882 297.283C376.207 266.727 383.975 235.679 387.442 204.553C388.464 195.377 393.072 178.188 382.338 173.23" fill="none" fill-rule="evenodd" opacity="1" stroke="#ffffff" stroke-linecap="round" stroke-linejoin="round" stroke-width="10"/>
<path d="M443.022 243.177C443.027 243.454 447.696 249.479 448.267 251.215C450.27 257.297 450.321 264.859 449.882 271.264C447.149 311.147 434.047 349.608 418.893 386.182C414.027 397.926 407.385 416.2 395.588 422.391" fill="none" fill-rule="evenodd" opacity="1" stroke="#ffffff" stroke-linecap="round" stroke-linejoin="round" stroke-width="10"/>
</g>
</svg>
