<?xml version="1.0" encoding="UTF-8" standalone="no"?>
<!DOCTYPE svg PUBLIC "-//W3C//DTD SVG 1.1//EN" "http://www.w3.org/Graphics/SVG/1.1/DTD/svg11.dtd">
<!-- Created with Vectornator (http://vectornator.io/) -->
<svg height="100%" stroke-miterlimit="10" style="fill-rule:nonzero;clip-rule:evenodd;stroke-linecap:round;stroke-linejoin:round;" version="1.1" viewBox="0 0 841.995 595.35" width="100%" xml:space="preserve" xmlns="http://www.w3.org/2000/svg" xmlns:vectornator="http://vectornator.io" xmlns:xlink="http://www.w3.org/1999/xlink">
<g id="Layer-2" vectornator:layerName="Layer 2">
<path d="M118.981 287.859C118.348 289.213 118.816 280.295 119.374 278C120.916 271.654 121.098 264.929 123.41 258.647C123.685 257.899 126.509 249.74 128.015 250.813C130.099 252.297 126.846 258.063 126.07 259.566C123.713 264.126 120.751 271.949 120.591 277.112C120.492 280.33 120.343 284.942 118.981 287.859Z" fill="none" fill-rule="evenodd" opacity="1" stroke="#ffffff" stroke-linecap="round" stroke-linejoin="round" stroke-width="10"/>
<path d="M106.39 346.443C105.845 346.716 103.163 354.893 102.7 356.281C99.2973 366.49 94.5643 376.222 93.214 387.024C93.0047 388.699 90.9059 398.255 92.6869 399.146C96.7877 401.196 93.1062 390.917 92.8626 390.186" fill="none" fill-rule="evenodd" opacity="1" stroke="#ffffff" stroke-linecap="round" stroke-linejoin="round" stroke-width="10"/>
<path d="M107.036 345.044C95.6983 352.084 85.3135 360.525 72.6085 365.084C67.6866 366.851 59.975 368.766 55.9406 363.952C51.874 359.1 58.6912 351.419 61.5751 347.949C67.3324 341.021 76.693 337.539 84.1612 332.902C89.9733 329.293 97.2445 325.875 103.832 324.305" fill="none" fill-rule="evenodd" opacity="1" stroke="#ffffff" stroke-linecap="round" stroke-linejoin="round" stroke-width="10"/>
<path d="M102.921 323.219C93.6362 325.432 83.1179 329.171 73.2572 327.247C70.4938 326.708 63.2192 325.665 63.8409 321.455C64.8097 314.892 72.2531 310.815 76.6594 306.889C88.0366 296.751 102.462 290.326 117.753 291.124C123.105 291.403 128.178 293.14 132.298 296.563C133.786 297.8 136.099 300.521 134.256 302.503C132.356 304.548 131.084 297.015 130.585 296.211" fill="none" fill-rule="evenodd" opacity="1" stroke="#ffffff" stroke-linecap="round" stroke-linejoin="round" stroke-width="10"/>
</g>
</svg>
